<svg width="35" height="27" viewBox="0 0 35 27" fill="none" xmlns="http://www.w3.org/2000/svg">
<path fill-rule="evenodd" clip-rule="evenodd" d="M0.269771 0.258112C0.442502 0.0928459 0.676776 0 0.921055 0H34.079C34.3233 0 34.5576 0.0928459 34.7303 0.258112C34.9031 0.423379 35.0001 0.647528 35.0001 0.88125V22.0312C35.0001 23.1999 34.5149 24.3206 33.6512 25.1469C32.7876 25.9733 31.6162 26.4375 30.3948 26.4375H4.60528C3.38388 26.4375 2.21251 25.9733 1.34885 25.1469C0.485197 24.3206 0 23.1999 0 22.0312V0.88125C0 0.647528 0.0970397 0.423379 0.269771 0.258112ZM1.84211 2.4545V22.0312C1.84211 22.7324 2.13323 23.4049 2.65142 23.9007C3.16962 24.3965 3.87244 24.675 4.60528 24.675H30.3948C31.1277 24.675 31.8305 24.3965 32.3487 23.9007C32.8669 23.4049 33.158 22.7324 33.158 22.0312V2.4545L17.8457 17.105C17.6524 17.29 17.3477 17.29 17.1544 17.105L1.84211 2.4545ZM32.4347 1.7625H2.56536L17.5001 16.0518L32.4347 1.7625Z" fill="#002D4C"/>
</svg>
