<svg id="Camada_1" data-name="Camada 1" xmlns="http://www.w3.org/2000/svg" viewBox="0 0 643.57 904.97"><defs><style>.cls-1,.cls-2{fill:#002d4c;}.cls-2{fill-rule:evenodd;}</style></defs><path class="cls-1" d="M793.63,318.17l-3-8.75H767.54l-3,8.75a3.55,3.55,0,0,1-3.38,2.41h-5.94a2.17,2.17,0,0,1-2.08-2.89l18.38-51a3.58,3.58,0,0,1,3.37-2.33h8.35a3.65,3.65,0,0,1,3.37,2.33l18.31,51a2.17,2.17,0,0,1-2,2.89H797A3.54,3.54,0,0,1,793.63,318.17Zm-6.26-18.46-8.27-24.33-8.27,24.33Z" transform="translate(-662.54 -99.68)"/><path class="cls-1" d="M848.86,295.85v21.84a2.87,2.87,0,0,1-2.89,2.89h-4.41a2.87,2.87,0,0,1-2.89-2.89V297.94c0-5.22-2.17-9.15-7.95-9.15-6,0-8.67,4.41-8.67,9.15v19.75a2.86,2.86,0,0,1-2.81,2.89h-4.5a2.86,2.86,0,0,1-2.81-2.89V282.77a2.86,2.86,0,0,1,2.81-2.89h4.5a2.86,2.86,0,0,1,2.81,2.89v2.08c2.25-3.29,5.94-5.94,11.88-5.94C844.2,278.91,848.86,287.18,848.86,295.85Z" transform="translate(-662.54 -99.68)"/><path class="cls-1" d="M858.17,268.48a5.42,5.42,0,1,1,5.38,5.46A5.45,5.45,0,0,1,858.17,268.48Zm.32,49.21V282.77a2.88,2.88,0,0,1,2.89-2.89h4.42a2.88,2.88,0,0,1,2.89,2.89v34.92a2.88,2.88,0,0,1-2.89,2.89h-4.42A2.88,2.88,0,0,1,858.49,317.69Z" transform="translate(-662.54 -99.68)"/><path class="cls-1" d="M937,295.13v22.56a2.86,2.86,0,0,1-2.81,2.89h-4.5a2.88,2.88,0,0,1-2.89-2.89V297.22c0-5.06-2.08-8.43-6.82-8.43s-7.23,3.77-7.23,8.43v20.47a2.87,2.87,0,0,1-2.89,2.89h-4.41a2.87,2.87,0,0,1-2.89-2.89V297.22c0-5.06-2.09-8.43-6.83-8.43s-7.22,3.77-7.22,8.43v20.47a2.88,2.88,0,0,1-2.89,2.89h-4.42a2.88,2.88,0,0,1-2.89-2.89V282.77a2.88,2.88,0,0,1,2.89-2.89h4.42a2.88,2.88,0,0,1,2.89,2.89v1.44c2.09-3,5.38-5.3,10.76-5.3,5.54,0,9.15,2.57,11.24,6.35a14.59,14.59,0,0,1,12.28-6.35C932.19,278.91,937,286.46,937,295.13Z" transform="translate(-662.54 -99.68)"/><path class="cls-1" d="M980,279.88h4.42a2.88,2.88,0,0,1,2.89,2.89v34.92a2.88,2.88,0,0,1-2.89,2.89H980a2.87,2.87,0,0,1-2.89-2.89v-1.93c-2.57,3.37-6.66,5.78-13,5.78-12.6,0-19.83-10.67-19.83-21.27s7.23-21.36,19.83-21.36c6.35,0,10.44,2.41,13,5.78v-1.92A2.87,2.87,0,0,1,980,279.88Zm-3.29,20.39c0-6.34-4-11.56-11-11.56s-11,5.3-11,11.56,4,11.56,11,11.56S976.67,306.53,976.67,300.27Z" transform="translate(-662.54 -99.68)"/><path class="cls-1" d="M999.79,264.38h4.49a2.86,2.86,0,0,1,2.81,2.89v50.42a2.86,2.86,0,0,1-2.81,2.89h-4.49a2.87,2.87,0,0,1-2.89-2.89V267.27A2.88,2.88,0,0,1,999.79,264.38Z" transform="translate(-662.54 -99.68)"/><path class="cls-1" d="M1078.38,304.2c0,8.83-6.18,17.34-21,17.34-9.23,0-17.66-3.29-21.36-10.43a2.83,2.83,0,0,1,1.69-4l5.06-1.6a2.79,2.79,0,0,1,3.29,1.2c1.61,2.73,5,5.38,11.24,5.38,5.62,0,10.12-2.17,10.12-7.06,0-5.54-6.35-5.95-15.26-8.19-11.32-2.81-15.09-8.43-15.09-16.22,0-10.6,8.11-17.26,19.83-17.26,8.11,0,14.77,3.53,18,10a2.89,2.89,0,0,1-1.92,4l-5.06,1.2a2.8,2.8,0,0,1-3.13-1.36c-1.29-2.33-4-4.34-8.43-4.34-4.58,0-8.51,2.41-8.51,7,0,6.26,7.14,7.22,12.36,8.43C1073.57,291.36,1078.38,295.21,1078.38,304.2Z" transform="translate(-662.54 -99.68)"/><path class="cls-1" d="M1119.33,279.88h4.41a2.87,2.87,0,0,1,2.89,2.89v34.92a2.87,2.87,0,0,1-2.89,2.89h-4.41a2.87,2.87,0,0,1-2.89-2.89v-1.93c-2.57,3.37-6.67,5.78-13,5.78-12.61,0-19.83-10.67-19.83-21.27s7.22-21.36,19.83-21.36c6.34,0,10.44,2.41,13,5.78v-1.92A2.87,2.87,0,0,1,1119.33,279.88Zm-3.3,20.39c0-6.34-4-11.56-11-11.56s-11,5.3-11,11.56,4,11.56,11,11.56S1116,306.53,1116,300.27Z" transform="translate(-662.54 -99.68)"/><path class="cls-1" d="M1164,279.88h5.3a2.12,2.12,0,0,1,2,2.89l-13.17,35.48a3.55,3.55,0,0,1-3.29,2.33h-6.26a3.54,3.54,0,0,1-3.29-2.33l-13.17-35.48a2.12,2.12,0,0,1,2-2.89h5.3a3.68,3.68,0,0,1,3.45,2.49l8.83,26.33,8.83-26.33A3.68,3.68,0,0,1,1164,279.88Z" transform="translate(-662.54 -99.68)"/><path class="cls-1" d="M1215.58,301.39a2.84,2.84,0,0,1-2.81,2.81h-27.53c1.44,5.38,5.94,8.27,11.56,8.27a12.36,12.36,0,0,0,8-2.89,2.05,2.05,0,0,1,2.48-.24l4.58,2.73a2.16,2.16,0,0,1,.4,3.37,21.86,21.86,0,0,1-15.49,6.1c-13.49,0-22.4-8.91-22.4-21.27,0-12.77,9.55-21.36,20.79-21.36C1206.75,278.91,1216.15,287,1215.58,301.39Zm-10.11-5.05c-1-5.38-4.66-8.36-10.12-8.36-5,0-8.91,3.14-10.11,8.36Z" transform="translate(-662.54 -99.68)"/><path class="cls-2" d="M984.49,99.68c-5.57.21-11.14.42-17.43,2.5A52.09,52.09,0,0,0,948.2,113.5c-5.55,5.3-9.64,11.94-13.6,19.4s-7.77,15.73-11.49,24.61-7.35,18.36-9.76,25.14-3.63,10.83-3.81,15.68a31.62,31.62,0,0,0,3.78,16.35,41.29,41.29,0,0,0,14.84,15.62,39.23,39.23,0,0,0,19.47,4.82,28.85,28.85,0,0,0,16.49-4.42c5.35-3.35,11-8.93,13.54-13.12s2-7,.8-9.3-3.11-4.16-7.79-8.69-12.16-11.75-16.77-16.39-6.35-6.7-7.28-9.81a16.7,16.7,0,0,1,.49-10.87,15.34,15.34,0,0,1,8.46-8.05,15,15,0,0,1,12,.46c3.85,1.87,7.17,5.55,9.9,8.44s4.88,5,7,7.13c2.15-2.12,4.29-4.23,7-7.13s6.05-6.57,9.9-8.44a15,15,0,0,1,12-.46,15.34,15.34,0,0,1,8.46,8.05,16.76,16.76,0,0,1,.49,10.87c-.93,3.11-2.68,5.17-7.28,9.81s-12.08,11.86-16.77,16.39-6.58,6.38-7.79,8.69-1.75,5.11.8,9.3,8.19,9.77,13.54,13.12a28.85,28.85,0,0,0,16.49,4.42,39.23,39.23,0,0,0,19.47-4.82,41.19,41.19,0,0,0,14.83-15.62,31.54,31.54,0,0,0,3.79-16.35c-.18-4.85-1.39-8.91-3.81-15.68s-6-16.26-9.76-25.14-7.53-17.15-11.49-24.61-8.05-14.1-13.61-19.4a52,52,0,0,0-18.85-11.32C995.64,100.1,990.07,99.89,984.49,99.68Z" transform="translate(-662.54 -99.68)"/><path class="cls-2" d="M737.57,527.58c-5.58.21-11.15.42-17.44,2.5a52,52,0,0,0-18.87,11.32c-5.56,5.3-9.65,12-13.61,19.41s-7.78,15.74-11.5,24.63-7.35,18.37-9.77,25.15-3.63,10.84-3.81,15.69a31.57,31.57,0,0,0,3.79,16.36,41.32,41.32,0,0,0,14.84,15.63,39.27,39.27,0,0,0,19.48,4.82,28.86,28.86,0,0,0,16.5-4.42c5.35-3.35,11-8.94,13.55-13.13s2-7,.8-9.3-3.11-4.16-7.8-8.7-12.16-11.76-16.77-16.4-6.35-6.7-7.28-9.81a16.66,16.66,0,0,1,.49-10.88,15.32,15.32,0,0,1,8.46-8.06,15,15,0,0,1,12,.46c3.86,1.88,7.18,5.56,9.91,8.46s4.88,5,7,7.12c2.14-2.11,4.29-4.23,7-7.12s6.06-6.58,9.92-8.46a15,15,0,0,1,12-.46,15.32,15.32,0,0,1,8.46,8.06,16.66,16.66,0,0,1,.49,10.88c-.93,3.11-2.67,5.17-7.28,9.81s-12.09,11.87-16.77,16.4-6.59,6.38-7.8,8.7-1.75,5.11.8,9.3,8.2,9.78,13.55,13.13a28.86,28.86,0,0,0,16.5,4.42,39.27,39.27,0,0,0,19.48-4.82,41.32,41.32,0,0,0,14.84-15.63,31.67,31.67,0,0,0,3.79-16.36c-.18-4.85-1.39-8.91-3.81-15.69s-6-16.27-9.77-25.15-7.54-17.16-11.5-24.63-8-14.11-13.61-19.41A52,52,0,0,0,755,530.08C748.72,528,743.14,527.79,737.57,527.58Z" transform="translate(-662.54 -99.68)"/><path class="cls-1" d="M883.9,630.33l-3-8.75H857.79l-3,8.75a3.54,3.54,0,0,1-3.37,2.41h-6a2.18,2.18,0,0,1-2.09-2.89l18.4-51a3.59,3.59,0,0,1,3.37-2.33h8.36a3.67,3.67,0,0,1,3.37,2.33l18.32,51a2.17,2.17,0,0,1-2,2.89h-6A3.54,3.54,0,0,1,883.9,630.33Zm-6.27-18.47-8.27-24.34-8.27,24.34Z" transform="translate(-662.54 -99.68)"/><path class="cls-1" d="M939.16,608v21.85a2.87,2.87,0,0,1-2.89,2.89h-4.42a2.88,2.88,0,0,1-2.89-2.89V610.09c0-5.22-2.17-9.16-8-9.16-6,0-8.68,4.42-8.68,9.16v19.76a2.86,2.86,0,0,1-2.81,2.89H905a2.86,2.86,0,0,1-2.81-2.89V594.91A2.86,2.86,0,0,1,905,592h4.5a2.86,2.86,0,0,1,2.81,2.89V597c2.25-3.3,5.95-6,11.89-6C934.5,591.05,939.16,599.33,939.16,608Z" transform="translate(-662.54 -99.68)"/><path class="cls-1" d="M948.48,580.61a5.42,5.42,0,1,1,5.38,5.46A5.45,5.45,0,0,1,948.48,580.61Zm.32,49.24V594.91a2.88,2.88,0,0,1,2.89-2.89h4.42a2.87,2.87,0,0,1,2.89,2.89v34.94a2.87,2.87,0,0,1-2.89,2.89h-4.42A2.88,2.88,0,0,1,948.8,629.85Z" transform="translate(-662.54 -99.68)"/><path class="cls-1" d="M1027.36,607.28v22.57a2.86,2.86,0,0,1-2.81,2.89h-4.5a2.87,2.87,0,0,1-2.89-2.89V609.37c0-5.06-2.09-8.44-6.83-8.44s-7.23,3.78-7.23,8.44v20.48a2.87,2.87,0,0,1-2.89,2.89h-4.42a2.87,2.87,0,0,1-2.89-2.89V609.37c0-5.06-2.09-8.44-6.83-8.44s-7.23,3.78-7.23,8.44v20.48a2.87,2.87,0,0,1-2.89,2.89h-4.42a2.87,2.87,0,0,1-2.89-2.89V594.91a2.87,2.87,0,0,1,2.89-2.89H976a2.87,2.87,0,0,1,2.89,2.89v1.44c2.09-3,5.38-5.3,10.77-5.3s9.15,2.57,11.24,6.35a14.62,14.62,0,0,1,12.29-6.35C1022.54,591.05,1027.36,598.6,1027.36,607.28Z" transform="translate(-662.54 -99.68)"/><path class="cls-1" d="M1070.33,592h4.42a2.87,2.87,0,0,1,2.89,2.89v34.94a2.87,2.87,0,0,1-2.89,2.89h-4.42a2.88,2.88,0,0,1-2.89-2.89v-1.93c-2.57,3.38-6.67,5.78-13,5.78-12.61,0-19.84-10.68-19.84-21.28s7.23-21.37,19.84-21.37c6.34,0,10.44,2.41,13,5.78v-1.92A2.88,2.88,0,0,1,1070.33,592Zm-3.29,20.4c0-6.35-4-11.57-11-11.57s-11,5.3-11,11.57,4,11.57,11,11.57S1067,618.68,1067,612.42Z" transform="translate(-662.54 -99.68)"/><path class="cls-1" d="M1090.17,576.51h4.5a2.86,2.86,0,0,1,2.81,2.89v50.45a2.86,2.86,0,0,1-2.81,2.89h-4.5a2.88,2.88,0,0,1-2.89-2.89V579.4A2.89,2.89,0,0,1,1090.17,576.51Z" transform="translate(-662.54 -99.68)"/><path class="cls-1" d="M1168.81,616.35c0,8.84-6.18,17.35-21,17.35-9.24,0-17.68-3.29-21.37-10.44a2.82,2.82,0,0,1,1.69-4l5.06-1.61a2.79,2.79,0,0,1,3.29,1.2c1.61,2.74,5,5.39,11.24,5.39,5.63,0,10.13-2.17,10.13-7.07,0-5.54-6.35-5.95-15.27-8.2-11.32-2.81-15.1-8.43-15.1-16.22,0-10.61,8.12-17.27,19.84-17.27,8.12,0,14.78,3.53,18,10a2.89,2.89,0,0,1-1.93,4l-5.06,1.2a2.79,2.79,0,0,1-3.13-1.37c-1.29-2.32-4-4.33-8.44-4.33-4.58,0-8.51,2.41-8.51,7,0,6.26,7.15,7.23,12.37,8.43C1164,603.5,1168.81,607.36,1168.81,616.35Z" transform="translate(-662.54 -99.68)"/><path class="cls-1" d="M1209.78,592h4.41a2.88,2.88,0,0,1,2.9,2.89v34.94a2.88,2.88,0,0,1-2.9,2.89h-4.41a2.88,2.88,0,0,1-2.9-2.89v-1.93c-2.57,3.38-6.66,5.78-13,5.78-12.61,0-19.84-10.68-19.84-21.28s7.23-21.37,19.84-21.37c6.35,0,10.44,2.41,13,5.78v-1.92A2.88,2.88,0,0,1,1209.78,592Zm-3.3,20.4c0-6.35-4-11.57-11-11.57s-11,5.3-11,11.57,4,11.57,11,11.57S1206.48,618.68,1206.48,612.42Z" transform="translate(-662.54 -99.68)"/><path class="cls-1" d="M1254.52,592h5.3a2.13,2.13,0,0,1,2,2.89l-13.18,35.5a3.54,3.54,0,0,1-3.29,2.33h-6.27a3.55,3.55,0,0,1-3.29-2.33l-13.17-35.5a2.12,2.12,0,0,1,2-2.89h5.3a3.68,3.68,0,0,1,3.45,2.49l8.84,26.34,8.83-26.34A3.7,3.7,0,0,1,1254.52,592Z" transform="translate(-662.54 -99.68)"/><path class="cls-1" d="M1306.09,613.54a2.85,2.85,0,0,1-2.81,2.81h-27.56c1.45,5.39,6,8.28,11.57,8.28a12.37,12.37,0,0,0,8-2.89,2,2,0,0,1,2.49-.24l4.58,2.73a2.16,2.16,0,0,1,.4,3.37,21.87,21.87,0,0,1-15.5,6.1c-13.49,0-22.41-8.91-22.41-21.28,0-12.77,9.56-21.37,20.8-21.37C1297.25,591.05,1306.65,599.16,1306.09,613.54ZM1296,608.48c-1-5.38-4.66-8.35-10.13-8.35-5,0-8.91,3.13-10.12,8.35Z" transform="translate(-662.54 -99.68)"/><path class="cls-2" d="M984.33,869.13c-5.58.21-11.15.42-17.45,2.5A51.89,51.89,0,0,0,948,883c-5.56,5.29-9.66,11.94-13.61,19.41s-7.78,15.74-11.5,24.62-7.35,18.37-9.77,25.15-3.63,10.84-3.81,15.69a31.57,31.57,0,0,0,3.79,16.36A41.17,41.17,0,0,0,928,999.82c6.27,3.64,13.39,4.8,19.48,4.83a28.87,28.87,0,0,0,16.5-4.43c5.35-3.35,11-8.94,13.55-13.13s2-7,.8-9.3-3.11-4.16-7.8-8.7-12.16-11.76-16.77-16.4-6.36-6.7-7.28-9.81a16.72,16.72,0,0,1,.48-10.88,15.4,15.4,0,0,1,8.47-8.06,15,15,0,0,1,12,.47c3.85,1.87,7.18,5.55,9.91,8.45s4.88,5,7,7.12c2.14-2.11,4.29-4.22,7-7.12s6.06-6.58,9.91-8.45a15,15,0,0,1,12-.47,15.39,15.39,0,0,1,8.46,8.06,16.66,16.66,0,0,1,.49,10.88c-.93,3.11-2.67,5.17-7.28,9.81s-12.09,11.87-16.78,16.4-6.58,6.38-7.8,8.7-1.74,5.11.81,9.3,8.2,9.78,13.55,13.13a28.87,28.87,0,0,0,16.5,4.43,39.42,39.42,0,0,0,19.48-4.83,41.32,41.32,0,0,0,14.84-15.63,31.77,31.77,0,0,0,3.79-16.36c-.19-4.85-1.4-8.91-3.81-15.69s-6-16.27-9.77-25.15-7.54-17.16-11.5-24.62-8.06-14.12-13.61-19.41a51.93,51.93,0,0,0-18.87-11.33C995.48,869.55,989.9,869.34,984.33,869.13Z" transform="translate(-662.54 -99.68)"/></svg>