<svg width="574" height="990" viewBox="0 0 574 990" fill="none" xmlns="http://www.w3.org/2000/svg">
<path d="M17.9604 15.2611L67 22.8762H105L144.5 5.90751L179.5 15.2611L214 0L238.5 15.2611L290.5 22.8762L321 5.90751H382.5L430.5 15.2611L476 5.90751L518 22.8762L574 15.2611V990H11.5L0 965.251L28.5 949.545L16 944.785L3.5 926.223L24.5 917.18L3.5 910.517L24.5 897.666L7 881.96L18.5 870.537L12 852.927L9 849.596L18.5 846.74L16 838.649L12 834.365L18.5 829.13L9 825.798L16 822.467L12 820.087L18.5 815.328L12 806.761L18.5 804.381L9 801.525L12 797.242V798.193L18.5 794.862L9 792.006L12 786.771L18.5 783.439L16 778.204L14.5 774.396L12 771.065L16 767.257L12 764.401L9 757.262L12 753.93L16 749.171L14.5 740.604L9 736.32L12 733.941L9 730.609L12 727.277L9 722.042H14.5L16 717.283L9 712.047L12 708.24V703.004H18.5L12 699.673V694.437L18.5 691.105L12 683.966L21 680.159L16 673.971V667.784L22.5 662.549L18.5 655.409H25L21 643.035L18.5 633.992L12 629.708L16 626.377L12 621.141L16 619.238L17 614.954L21 612.098L17 609.243L21 604.959L18.5 599.724L21 598.296L23 594.012L19.8614 591.633L14.5 590.681L12 588.301L16 584.969L19.8614 583.066L23 581.162L18.5 578.306L14.5 576.402L17 574.974L16 573.071L12 571.167L11 566.883L19.8614 564.504H23V557.84L16 551.177L11 543.562V529.284L19.8614 525L30 521.192L33.6436 512.149L27 506.914L19.8614 502.155L11 495.015L19.8614 488.352L11 480.737L21.7624 464.079V449.325V432.19L15.5 425.051L11 417.436L21.7624 409.821L26.9901 402.206L19.8614 397.446L15.5 394.115L21.7624 390.307L26.9901 387.451V380.312L21.7624 370.317L15.5 363.178L26.9901 355.087L21.7624 348.424L26.9901 341.761L33.6436 334.145L26.9901 327.958L21.7624 322.247L19.8614 315.108L26.9901 310.348L33.6436 301.305L26.9901 294.166L21.7624 286.075L31.2673 282.743L26.9901 275.128L33.6436 269.417L26.9901 265.133L33.6436 259.898L31.2673 251.807L26.9901 245.143L21.7624 240.384L26.9901 232.769L33.6436 224.678L21.7624 215.159L26.9901 208.971L21.7624 200.404L26.9901 191.837L21.7624 184.698L26.9901 178.987L31.2673 171.372L33.6436 163.756L29.3663 158.045V153.762L31.2673 150.906L28.4158 146.622L25.5644 143.291L28.4158 139.483L31.2673 136.152V131.392L28.4158 129.012L25.5644 126.157V121.873L29.3663 118.066L33.6436 110.926L25.5644 104.739L31.2673 94.7442L25.5644 90.4607L23.6634 83.3215L29.3663 76.1822L31.2673 71.4228L25.5644 64.2836L29.3663 60.0001L25.5644 50.4811L33.6436 47.1495L37.4455 39.5343L29.3663 33.347L25.5644 22.8762L17.9604 15.2611Z" fill="#002D4C"/>
</svg>
