<svg width="574" height="1080" viewBox="0 0 574 1080" fill="none" xmlns="http://www.w3.org/2000/svg">
<path d="M17.9604 0H574V1080H11.5L0 1052.58L28.5 1035.18L16 1029.9L3.5 1009.34L24.5 999.316L3.5 991.934L24.5 977.695L7 960.293L18.5 947.637L12 928.125L9 924.434L18.5 921.269L16 912.305L12 907.559L18.5 901.758L9 898.066L16 894.375L12 891.738L18.5 886.465L12 876.973L18.5 874.336L9 871.172L12 866.426V867.48L18.5 863.789L9 860.625L12 854.824L18.5 851.133L16 845.332L14.5 841.113L12 837.422L16 833.203L12 830.039L9 822.129L12 818.437L16 813.164L14.5 803.672L9 798.926L12 796.289L9 792.598L12 788.906L9 783.105H14.5L16 777.832L9 772.031L12 767.812V762.012H18.5L12 758.32V752.519L18.5 748.828L12 740.918L21 736.699L16 729.844V722.988L22.5 717.187L18.5 709.277H25L21 695.566L18.5 685.547L12 680.801L16 677.109L12 671.309L16 669.199L17 664.453L21 661.289L17 658.125L21 653.379L18.5 647.578L21 645.996L23 641.25L19.8614 638.613L14.5 637.559L12 634.922L16 631.23L19.8614 629.121L23 627.012L18.5 623.848L14.5 621.738L17 620.156L16 618.047L12 615.938L11 611.191L19.8614 608.555H23V601.172L16 593.789L11 585.352V569.531L19.8614 564.785L30 560.566L33.6436 550.547L27 544.746L19.8614 539.473L11 531.562L19.8614 524.18L11 515.742L21.7624 497.285V480.937V461.953L15.5 454.043L11 445.605L21.7624 437.168L26.9901 428.73L19.8614 423.457L15.5 419.766L21.7624 415.547L26.9901 412.383V404.473L21.7624 393.398L15.5 385.488L26.9901 376.523L21.7624 369.141L26.9901 361.758L33.6436 353.32L26.9901 346.465L21.7624 340.137L19.8614 332.227L26.9901 326.953L33.6436 316.934L26.9901 309.023L21.7624 300.059L31.2673 296.367L26.9901 287.93L33.6436 281.602L26.9901 276.855L33.6436 271.055L31.2673 262.09L26.9901 254.707L21.7624 249.434L26.9901 240.996L33.6436 232.031L21.7624 221.484L26.9901 214.629L21.7624 205.137L26.9901 195.645L21.7624 187.734L26.9901 181.406L31.2673 172.969L33.6436 164.531L29.3663 158.203V153.457L31.2673 150.293L28.4158 145.547L25.5644 141.855L28.4158 137.637L31.2673 133.945V128.672L28.4158 126.035L25.5644 122.871V118.125L29.3663 113.906L33.6436 105.996L25.5644 99.1406L31.2673 88.0664L25.5644 83.3203L23.6634 75.4102L29.3663 67.5L31.2673 62.2266L25.5644 54.3164L29.3663 49.5703L25.5644 39.0234L33.6436 35.332L37.4455 26.8945L29.3663 20.0391L25.5644 8.4375L17.9604 0Z" fill="#002D4C"/>
</svg>
