<svg width="35" height="35" viewBox="0 0 35 35" fill="none" xmlns="http://www.w3.org/2000/svg">
<path fill-rule="evenodd" clip-rule="evenodd" d="M25.8768 31.4916C24.0432 31.4232 17.7974 30.6854 11.0572 23.9466C4.31534 17.2061 3.57735 10.9616 3.50898 9.12834C3.42659 6.88326 5.24617 4.63992 7.12534 3.65846C8.90274 5.09953 10.2718 7.11146 11.7623 9.30185C11.8036 9.36247 11.8449 9.42323 11.8864 9.48412C11.6654 9.70509 11.4123 9.93479 11.1485 10.1743C9.84473 11.3578 8.27674 12.7811 9.00277 14.5754C9.49886 15.7988 10.8907 18.8237 13.5359 21.4667C16.1794 24.1114 19.205 25.5047 20.4303 25.9972C22.2238 26.7231 23.6437 25.1597 24.8253 23.8588C25.0642 23.5957 25.2934 23.3434 25.5139 23.1229C27.7402 24.6617 29.7719 26.0813 31.332 27.911C30.3539 29.7635 28.0925 31.5722 25.8768 31.4916ZM8.5768 26.423C16.069 33.9137 23.2228 34.9004 25.7471 34.9933C29.6088 35.1352 33.3216 32.2224 34.7889 28.7996C34.9719 28.3759 35.0377 27.9108 34.9794 27.4529C34.9211 26.9951 34.7409 26.5613 34.4575 26.197C32.4838 23.6703 29.8308 21.8408 27.4725 20.2146C27.2839 20.0845 27.0972 19.9557 26.9128 19.828C26.4059 19.4766 25.7918 19.3141 25.1774 19.3688C24.563 19.4236 23.9873 19.6921 23.5506 20.1277L21.1753 22.5042C19.9553 21.9521 17.8552 20.8287 16.0146 18.9885C14.174 17.1483 13.0504 15.0486 12.4982 13.8306L14.8752 11.4523C15.3099 11.0174 15.5789 10.4442 15.6355 9.83191C15.6922 9.21966 15.533 8.60686 15.1855 8.09956C15.0129 7.84752 14.8374 7.58829 14.6583 7.32376C13.1039 5.02774 11.2797 2.33317 8.75209 0.489755C8.39026 0.227756 7.96652 0.0643111 7.52244 0.0154573C7.42861 0.00513441 7.33455 2.79662e-06 7.24068 0C7.24063 0 7.24058 0 7.24052 0C6.89019 1.04371e-05 6.5425 0.0714554 6.21906 0.211091C2.81305 1.67101 -0.13543 5.40931 0.00480661 9.25803C0.0994669 11.7835 1.08639 18.9342 8.5768 26.423Z" fill="#002D4C"/>
</svg>
